<?xml version="1.0" encoding="UTF-8" standalone="no"?>
<!DOCTYPE svg PUBLIC "-//W3C//DTD SVG 1.1//EN" "http://www.w3.org/Graphics/SVG/1.1/DTD/svg11.dtd">
<svg width="100%" height="100%" viewBox="0 0 300 300" version="1.1" xmlns="http://www.w3.org/2000/svg" xmlns:xlink="http://www.w3.org/1999/xlink" xml:space="preserve" xmlns:serif="http://www.serif.com/" style="fill-rule:evenodd;clip-rule:evenodd;stroke-linejoin:round;stroke-miterlimit:2;">
    <g transform="matrix(1.0853,0,0,1.15648,-20.1807,-8.70599)">
        <g id="Layer1">
            <ellipse cx="157.175" cy="137.078" rx="137.262" ry="127.002" style="fill:white;"/>
        </g>
    </g>
    <g transform="matrix(0.1,0,0,-0.1,0,300)">
        <path d="M1380,2979C1093,2953 832,2853 604,2681C355,2494 200,2289 92,2005C18,1812 -4,1669 3,1437C10,1203 48,1045 145,845C221,687 294,586 430,449C880,-5 1573,-114 2165,174C2442,309 2701,564 2839,838C3070,1296 3050,1855 2787,2280C2539,2679 2119,2936 1640,2979C1514,2991 1517,2991 1380,2979ZM1751,2944C2131,2879 2470,2675 2688,2381C2748,2301 2800,2218 2800,2203C2800,2198 2731,2188 2648,2182C2564,2175 2448,2165 2390,2159C2068,2130 1619,2090 1580,2088L1536,2085L1529,2125C1525,2147 1515,2230 1506,2310C1450,2794 1440,2889 1440,2923L1440,2960L1548,2960C1608,2960 1699,2953 1751,2944ZM1310,2940C1310,2934 1191,2809 1046,2662C901,2515 690,2301 577,2187L372,1979L274,1970C219,1965 158,1958 137,1956C99,1952 98,1952 105,1978C108,1993 133,2051 160,2108C362,2531 725,2819 1200,2931C1290,2952 1310,2953 1310,2940ZM1357,2473C1362,2254 1365,2073 1363,2071C1358,2065 640,1999 612,2003C593,2005 607,2026 726,2165C802,2253 940,2415 1033,2525C1250,2779 1331,2870 1339,2870C1343,2870 1351,2691 1357,2473ZM2877,2047C2999,1742 3011,1396 2910,1065C2898,1027 2862,941 2829,875C2621,454 2255,172 1775,63C1660,37 1310,37 1195,63C599,198 177,613 49,1189C16,1341 13,1332 151,1493C293,1661 411,1797 461,1853L497,1893L676,1911C1117,1954 1360,1973 1366,1967C1370,1963 1376,1721 1378,1429L1383,898L1449,821C1486,779 1556,694 1604,632C1683,531 1710,505 1710,528C1710,532 1687,731 1660,970C1632,1209 1594,1536 1576,1695C1558,1855 1544,1986 1545,1988C1547,1990 1664,2002 1807,2015C1949,2028 2084,2041 2107,2044C2147,2049 2151,2047 2197,1999C2304,1886 2400,1716 2442,1564C2461,1497 2464,1459 2464,1310C2464,1148 2462,1129 2437,1047C2329,696 2045,443 1670,364C1556,340 1355,341 1240,365C838,448 521,727 400,1104L378,1172L336,1133C314,1112 293,1094 291,1092C274,1082 367,872 434,768C738,296 1378,102 1893,325C2094,411 2276,561 2392,734C2621,1077 2647,1499 2460,1872C2438,1917 2404,1975 2385,2002C2366,2028 2350,2055 2350,2060C2350,2066 2367,2070 2388,2071C2408,2071 2504,2080 2600,2090C2696,2100 2793,2107 2814,2106C2853,2105 2855,2103 2877,2047ZM249,1853C241,1843 189,1788 132,1730L28,1625L34,1690C38,1726 46,1778 53,1805L66,1855L126,1861C158,1864 202,1867 224,1868C259,1870 261,1869 249,1853Z" style="fill-rule:nonzero;"/>
    </g>
</svg>
